# xmcd CD database file
#
# Track frame offsets:
#	150
#	14995
#	22865
#	39585
#	60747
#	73652
#	113467
#	140032
#	156290
#	170247
#	200777
#
# Disc length: 2982 seconds
#
# Revision: 0
# Processed by: cddbd v1.5.2PL0 Copyright (c) Steve Scherf et al.
# Submitted via: CDex 1.51
#
DISCID=a30ba40b
DTITLE=Mircea Tiberian - Alone in Heaven
DYEAR=1996
DGENRE=Jazz
TTITLE0=Movin' on
TTITLE1=My city
TTITLE2=Beavy
TTITLE3=Silly song
TTITLE4=Where am I?
TTITLE5=Eppur si muove
TTITLE6=Penthouse view
TTITLE7=Sphere
TTITLE8=Phallapha
TTITLE9=Iannus
TTITLE10=Alone in heaven
EXTD=YEAR: 1996
EXTT0=
EXTT1=
EXTT2=
EXTT3=
EXTT4=
EXTT5=
EXTT6=
EXTT7=
EXTT8=
EXTT9=
EXTT10=
PLAYORDER=
